<svg width="64" height="64" viewBox="0 0 64 64" fill="none" xmlns="http://www.w3.org/2000/svg">
<circle opacity="0.2" cx="32" cy="32" r="32" fill="#89DBFF"/>
<path d="M32 20.6667C33.9763 20.6647 35.9283 21.1029 37.7141 21.9496C39.4999 22.7962 41.0746 24.03 42.324 25.5614L33.8853 34L42.324 42.4387C41.0746 43.97 39.4999 45.2038 37.7141 46.0505C35.9283 46.8971 33.9763 47.3354 32 47.3334C24.636 47.3334 18.6667 41.364 18.6667 34C18.6667 26.636 24.636 20.6667 32 20.6667ZM32 24.6667C31.4696 24.6667 30.9609 24.8774 30.5858 25.2525C30.2107 25.6276 30 26.1363 30 26.6667C30 27.1971 30.2107 27.7058 30.5858 28.0809C30.9609 28.456 31.4696 28.6667 32 28.6667C32.5304 28.6667 33.0391 28.456 33.4142 28.0809C33.7893 27.7058 34 27.1971 34 26.6667C34 26.1363 33.7893 25.6276 33.4142 25.2525C33.0391 24.8774 32.5304 24.6667 32 24.6667Z" fill="#89DBFF"/>
</svg>
