<svg width="64" height="64" viewBox="0 0 64 64" fill="none" xmlns="http://www.w3.org/2000/svg">
<circle opacity="0.2" cx="32" cy="32" r="32" fill="#FFD736"/>
<path d="M32 30.6667C33.7681 30.6667 35.4638 31.3691 36.7141 32.6193C37.9643 33.8696 38.6667 35.5652 38.6667 37.3334V45.3334H25.3334V37.3334C25.3334 35.5652 26.0357 33.8696 27.286 32.6193C28.5362 31.3691 30.2319 30.6667 32 30.6667ZM23.0507 34.6747C22.8385 35.3904 22.7132 36.129 22.6774 36.8747L22.6667 37.3334V45.3334H18.6667V39.3334C18.6664 38.1835 19.0907 37.0739 19.8582 36.2176C20.6257 35.3613 21.6823 34.8185 22.8254 34.6934L23.052 34.6747H23.0507ZM40.9494 34.6747C42.1359 34.747 43.2502 35.2693 44.0648 36.135C44.8795 37.0007 45.3332 38.1446 45.3334 39.3334V45.3334H41.3334V37.3334C41.3334 36.4094 41.2 35.5174 40.9494 34.6747ZM23.3334 26.6667C24.2174 26.6667 25.0653 27.0179 25.6904 27.643C26.3155 28.2681 26.6667 29.116 26.6667 30C26.6667 30.8841 26.3155 31.7319 25.6904 32.357C25.0653 32.9822 24.2174 33.3334 23.3334 33.3334C22.4493 33.3334 21.6015 32.9822 20.9763 32.357C20.3512 31.7319 20 30.8841 20 30C20 29.116 20.3512 28.2681 20.9763 27.643C21.6015 27.0179 22.4493 26.6667 23.3334 26.6667ZM40.6667 26.6667C41.5507 26.6667 42.3986 27.0179 43.0237 27.643C43.6488 28.2681 44 29.116 44 30C44 30.8841 43.6488 31.7319 43.0237 32.357C42.3986 32.9822 41.5507 33.3334 40.6667 33.3334C39.7826 33.3334 38.9348 32.9822 38.3097 32.357C37.6845 31.7319 37.3334 30.8841 37.3334 30C37.3334 29.116 37.6845 28.2681 38.3097 27.643C38.9348 27.0179 39.7826 26.6667 40.6667 26.6667ZM32 18.6667C33.4145 18.6667 34.7711 19.2286 35.7713 20.2288C36.7715 21.229 37.3334 22.5855 37.3334 24C37.3334 25.4145 36.7715 26.7711 35.7713 27.7713C34.7711 28.7715 33.4145 29.3334 32 29.3334C30.5855 29.3334 29.229 28.7715 28.2288 27.7713C27.2286 26.7711 26.6667 25.4145 26.6667 24C26.6667 22.5855 27.2286 21.229 28.2288 20.2288C29.229 19.2286 30.5855 18.6667 32 18.6667Z" fill="#FFD736"/>
</svg>
