<svg width="22" height="20" viewBox="0 0 22 20" fill="none" xmlns="http://www.w3.org/2000/svg">
<path d="M16.1211 2.96082e-06C15.08 -0.00104174 14.0573 0.274392 13.1576 0.798147C12.2578 1.3219 11.5133 2.07519 11.0001 2.981C10.4869 2.07519 9.74237 1.3219 8.84262 0.798147C7.94288 0.274392 6.92018 -0.00104174 5.8791 2.96082e-06C4.28651 0.0825438 2.78698 0.775568 1.69212 1.93505C0.597255 3.09454 -0.00873002 4.63131 9.50538e-05 6.226C9.50538e-05 14.34 11.0001 20 11.0001 20C11.0001 20 22.0001 14.34 22.0001 6.226C22.0089 4.63131 21.4029 3.09454 20.3081 1.93505C19.2132 0.775568 17.7137 0.0825438 16.1211 2.96082e-06Z" fill="#FF6243"/>
</svg>
