<svg width="64" height="64" viewBox="0 0 64 64" fill="none" xmlns="http://www.w3.org/2000/svg">
<circle opacity="0.2" cx="32" cy="32" r="32" fill="#F42011"/>
<path d="M32 42.6667C34.829 42.6667 37.5421 41.5429 39.5425 39.5426C41.5429 37.5422 42.6667 34.8291 42.6667 32.0001C42.6667 29.1711 41.5429 26.458 39.5425 24.4576C37.5421 22.4572 34.829 21.3334 32 21.3334C29.171 21.3334 26.4579 22.4572 24.4575 24.4576C22.4572 26.458 21.3334 29.1711 21.3334 32.0001C21.3334 34.8291 22.4572 37.5422 24.4575 39.5426C26.4579 41.5429 29.171 42.6667 32 42.6667ZM32 45.3334C24.636 45.3334 18.6667 39.3641 18.6667 32.0001C18.6667 24.6361 24.636 18.6667 32 18.6667C39.364 18.6667 45.3334 24.6361 45.3334 32.0001C45.3334 39.3641 39.364 45.3334 32 45.3334ZM32 37.3334C33.4145 37.3334 34.7711 36.7715 35.7713 35.7713C36.7715 34.7711 37.3334 33.4146 37.3334 32.0001C37.3334 30.5856 36.7715 29.229 35.7713 28.2288C34.7711 27.2287 33.4145 26.6667 32 26.6667C30.5855 26.6667 29.229 27.2287 28.2288 28.2288C27.2286 29.229 26.6667 30.5856 26.6667 32.0001C26.6667 33.4146 27.2286 34.7711 28.2288 35.7713C29.229 36.7715 30.5855 37.3334 32 37.3334ZM32 40.0001C29.8783 40.0001 27.8435 39.1572 26.3432 37.6569C24.8429 36.1566 24 34.1218 24 32.0001C24 29.8783 24.8429 27.8435 26.3432 26.3432C27.8435 24.8429 29.8783 24.0001 32 24.0001C34.1218 24.0001 36.1566 24.8429 37.6569 26.3432C39.1572 27.8435 40 29.8783 40 32.0001C40 34.1218 39.1572 36.1566 37.6569 37.6569C36.1566 39.1572 34.1218 40.0001 32 40.0001ZM32 34.6667C31.2928 34.6667 30.6145 34.3858 30.1144 33.8857C29.6143 33.3856 29.3334 32.7073 29.3334 32.0001C29.3334 31.2928 29.6143 30.6146 30.1144 30.1145C30.6145 29.6144 31.2928 29.3334 32 29.3334C32.7073 29.3334 33.3855 29.6144 33.8856 30.1145C34.3857 30.6146 34.6667 31.2928 34.6667 32.0001C34.6667 32.7073 34.3857 33.3856 33.8856 33.8857C33.3855 34.3858 32.7073 34.6667 32 34.6667Z" fill="#F42011"/>
</svg>
