<svg width="64" height="64" viewBox="0 0 64 64" fill="none" xmlns="http://www.w3.org/2000/svg">
<circle opacity="0.2" cx="32" cy="32" r="32" fill="#50D38D"/>
<path d="M18.6667 28H44C44.3536 28 44.6928 28.1405 44.9428 28.3905C45.1929 28.6406 45.3334 28.9797 45.3334 29.3333V42.6667C45.3334 43.0203 45.1929 43.3594 44.9428 43.6095C44.6928 43.8595 44.3536 44 44 44H20C19.6464 44 19.3073 43.8595 19.0572 43.6095C18.8072 43.3594 18.6667 43.0203 18.6667 42.6667V28ZM20 20H40V25.3333H18.6667V21.3333C18.6667 20.9797 18.8072 20.6406 19.0572 20.3905C19.3073 20.1405 19.6464 20 20 20ZM36 34.6667V37.3333H40V34.6667H36Z" fill="#50D38D"/>
</svg>
